<?xml version="1.0" standalone="no"?>
<!DOCTYPE svg PUBLIC "-//W3C//DTD SVG 20010904//EN"
 "http://www.w3.org/TR/2001/REC-SVG-20010904/DTD/svg10.dtd">
<svg version="1.0" xmlns="http://www.w3.org/2000/svg"
 width="2048.000000pt" height="2048.000000pt" viewBox="0 0 2048.000000 2048.000000"
 preserveAspectRatio="xMidYMid meet">

<g transform="translate(0.000000,2048.000000) scale(0.100000,-0.100000)"
fill="#000000" stroke="none">
<path d="M6350 14240 c-30 -4 -112 -8 -182 -9 -73 -1 -129 -5 -133 -11 -3 -5
-41 -10 -83 -10 -42 0 -95 -7 -117 -15 -22 -8 -65 -14 -96 -15 -85 0 -89 -7
-90 -181 0 -79 -5 -207 -10 -284 -6 -77 -15 -216 -20 -310 -5 -93 -14 -240
-20 -325 -16 -229 -16 -2332 0 -2725 25 -617 27 -670 35 -686 8 -18 26 -338
32 -569 2 -85 9 -164 14 -175 5 -11 12 -87 15 -170 9 -273 17 -395 25 -395 4
0 10 -37 13 -82 8 -135 46 -228 92 -228 8 0 15 -4 15 -10 0 -5 6 -10 14 -10 8
0 45 -16 83 -37 37 -20 95 -50 128 -66 33 -16 68 -33 77 -38 10 -5 24 -9 32
-9 8 0 16 -3 18 -7 4 -11 115 -63 133 -63 8 0 15 -4 15 -10 0 -5 11 -10 24
-10 14 0 28 -5 31 -10 3 -6 17 -10 31 -10 13 0 24 -4 24 -10 0 -5 11 -10 24
-10 14 0 28 -4 31 -10 3 -5 17 -10 30 -10 13 0 30 -7 39 -15 8 -8 26 -15 40
-15 14 0 28 -4 31 -10 3 -5 17 -10 30 -10 13 0 27 -4 30 -10 3 -5 19 -10 35
-10 16 0 32 -4 35 -10 3 -6 19 -10 36 -10 16 0 29 -4 29 -10 0 -5 10 -10 23
-10 13 0 32 -7 43 -15 10 -8 33 -15 51 -15 17 0 35 -4 38 -10 3 -6 19 -10 35
-10 16 0 32 -4 35 -10 3 -5 19 -10 35 -10 16 0 32 -4 35 -10 3 -5 19 -10 35
-10 16 0 31 -3 34 -8 2 -4 36 -16 75 -27 39 -10 71 -23 71 -27 0 -4 11 -8 24
-8 14 0 28 -4 31 -10 3 -5 17 -10 31 -10 13 0 24 -4 24 -10 0 -5 11 -10 24
-10 14 0 28 -4 31 -10 3 -5 17 -10 31 -10 13 0 24 -4 24 -10 0 -5 8 -10 18
-10 10 0 27 -7 38 -15 10 -8 27 -15 37 -15 17 0 27 -4 74 -28 13 -7 30 -12 38
-12 8 0 23 -4 33 -9 35 -19 88 -40 130 -50 23 -7 42 -16 42 -21 0 -6 11 -10
25 -10 14 0 25 -4 25 -10 0 -5 14 -10 30 -10 17 0 30 -4 30 -10 0 -5 9 -10 20
-10 11 0 20 -4 20 -10 0 -5 9 -10 19 -10 11 0 41 -11 67 -25 26 -14 51 -25 56
-25 4 0 30 -9 56 -21 26 -12 56 -24 67 -29 11 -4 54 -24 96 -44 42 -20 81 -36
87 -36 7 0 12 -4 12 -8 0 -5 16 -14 35 -22 19 -8 35 -17 35 -22 0 -4 9 -8 19
-8 11 0 22 -4 25 -9 8 -13 109 -23 150 -16 46 9 82 46 90 93 4 20 11 107 15
192 5 85 13 173 18 195 8 38 10 40 48 43 22 2 44 8 50 13 5 5 39 9 76 9 37 0
71 5 74 10 3 6 33 10 65 10 33 0 85 7 116 15 33 8 73 12 95 9 44 -7 89 15 89
44 0 10 7 27 15 38 8 10 15 35 15 55 0 19 4 39 9 45 16 15 29 534 20 797 -1
54 8 109 34 190 11 35 13 56 6 76 -6 16 -8 131 -5 282 3 140 6 281 7 314 1 72
-28 772 -51 1220 -6 110 -14 355 -18 545 -4 190 -11 350 -15 357 -15 23 -32
398 -27 603 7 344 4 712 -9 970 -7 135 -15 383 -18 553 -3 172 -9 307 -14 307
-5 0 -9 13 -9 29 0 17 -4 33 -10 36 -5 3 -10 14 -10 23 0 37 -85 76 -157 72
-18 -1 -140 -2 -270 -2 -238 -1 -404 11 -442 31 -11 6 -44 11 -73 11 -30 0
-58 4 -64 9 -9 9 -63 16 -199 27 -38 3 -74 10 -79 15 -6 5 -47 9 -92 9 -46 0
-85 4 -88 9 -13 20 -363 31 -671 20 -126 -5 -373 14 -403 30 -12 6 -50 11 -86
11 -36 0 -66 4 -66 9 0 8 -70 14 -325 25 -49 2 -115 0 -145 -4z m-440 -170 c0
-5 15 -10 34 -10 19 0 41 -7 50 -15 8 -8 26 -15 40 -15 14 0 26 -4 26 -10 0
-5 9 -10 19 -10 11 0 23 -4 26 -10 3 -5 17 -10 30 -10 13 0 27 -4 30 -10 3 -5
15 -10 26 -10 10 0 19 -4 19 -10 0 -5 6 -10 13 -10 10 0 55 -19 139 -61 10 -5
25 -9 33 -9 8 0 15 -4 15 -10 0 -5 7 -10 15 -10 8 0 23 -4 33 -9 9 -6 36 -18
60 -27 23 -10 42 -21 42 -26 0 -4 9 -8 20 -8 18 0 85 -26 132 -51 10 -5 25 -9
33 -9 8 0 15 -4 15 -10 0 -5 6 -10 13 -10 6 0 35 -12 62 -25 28 -14 56 -25 63
-25 6 0 12 -4 12 -10 0 -5 9 -10 20 -10 11 0 28 -4 38 -9 9 -5 28 -13 42 -19
66 -27 100 -43 105 -52 3 -6 17 -10 31 -10 13 0 24 -4 24 -10 0 -5 11 -10 25
-10 14 0 25 -4 25 -10 0 -5 9 -10 19 -10 11 0 23 -4 26 -10 3 -5 17 -10 31
-10 13 0 24 -4 24 -10 0 -5 7 -10 14 -10 8 0 36 -11 62 -25 26 -14 55 -25 65
-25 11 0 19 -4 19 -10 0 -5 9 -10 19 -10 11 0 22 -4 25 -8 3 -4 28 -14 55 -22
28 -7 51 -17 51 -22 0 -4 8 -8 18 -8 9 0 26 -7 36 -15 11 -8 28 -15 38 -15 10
0 18 -4 18 -10 0 -5 11 -10 25 -10 14 0 25 -4 25 -10 0 -5 14 -10 30 -10 17 0
30 -4 30 -10 0 -5 9 -10 19 -10 11 0 22 -4 25 -9 4 -5 29 -15 57 -22 28 -7 54
-19 56 -26 3 -7 18 -13 34 -13 16 0 29 -4 29 -10 0 -5 11 -10 25 -10 14 0 25
-4 25 -10 0 -5 14 -10 30 -10 17 0 30 -4 30 -10 0 -5 14 -10 30 -10 17 0 30
-4 30 -9 0 -5 16 -12 35 -15 19 -4 35 -11 35 -16 0 -6 13 -10 29 -10 17 0 33
-4 36 -10 3 -5 19 -10 36 -10 16 0 29 -4 29 -10 0 -5 8 -10 18 -10 57 0 112
-68 112 -140 0 -22 5 -42 10 -45 6 -3 10 -47 10 -96 0 -50 5 -100 12 -112 6
-12 15 -73 20 -137 5 -63 14 -155 19 -205 6 -49 12 -133 15 -185 3 -52 10 -99
15 -104 5 -6 9 -52 9 -103 0 -55 4 -93 10 -93 6 0 10 -40 10 -99 0 -56 4 -103
10 -106 6 -3 10 -53 10 -114 0 -69 4 -111 12 -119 7 -7 13 -57 15 -129 3 -65
8 -127 13 -138 6 -11 12 -90 15 -175 4 -144 9 -237 35 -735 24 -457 27 -514
39 -580 17 -106 11 -2613 -7 -2624 -12 -7 -113 35 -120 51 -2 5 -12 8 -23 8
-10 0 -19 5 -19 10 0 6 -11 10 -25 10 -14 0 -25 5 -25 10 0 6 -9 10 -20 10
-11 0 -20 5 -20 10 0 6 -13 10 -30 10 -16 0 -30 5 -30 10 0 6 -8 10 -19 10
-10 0 -24 7 -31 15 -7 8 -21 15 -31 15 -10 0 -21 5 -24 10 -3 6 -17 10 -31 10
-13 0 -24 5 -24 10 0 6 -9 10 -19 10 -11 0 -23 4 -26 10 -3 6 -17 10 -31 10
-13 0 -24 5 -24 10 0 6 -7 10 -15 10 -8 0 -23 4 -33 9 -9 4 -35 16 -57 26 -22
9 -48 21 -57 26 -10 5 -27 9 -38 9 -11 0 -20 5 -20 10 0 6 -11 10 -25 10 -14
0 -25 5 -25 10 0 6 -13 10 -30 10 -16 0 -30 5 -30 10 0 6 -7 10 -16 10 -9 0
-30 7 -47 16 -60 32 -67 34 -91 34 -14 0 -28 5 -31 10 -3 6 -24 10 -46 10 -21
0 -39 5 -39 10 0 6 -18 10 -40 10 -22 0 -40 5 -40 10 0 6 -9 10 -20 10 -32 0
-135 30 -138 40 -2 6 -17 10 -33 10 -16 0 -29 5 -29 10 0 6 -11 10 -25 10 -14
0 -25 5 -25 10 0 6 -9 10 -20 10 -11 0 -20 5 -20 10 0 6 -13 10 -30 10 -16 0
-30 5 -30 10 0 6 -8 10 -19 10 -10 0 -24 7 -31 15 -7 8 -23 15 -36 15 -12 0
-26 4 -29 10 -3 6 -19 10 -35 10 -16 0 -32 5 -35 10 -3 6 -17 10 -30 10 -13 0
-27 5 -30 10 -3 6 -19 10 -36 10 -16 0 -29 4 -29 10 0 5 -16 12 -35 16 -19 3
-35 10 -35 15 0 5 -13 9 -30 9 -16 0 -30 5 -30 10 0 6 -13 10 -30 10 -16 0
-30 5 -30 10 0 6 -16 10 -35 10 -19 0 -35 5 -35 10 0 6 -11 10 -23 10 -13 0
-27 3 -31 7 -9 10 -78 33 -97 33 -9 0 -22 7 -29 15 -7 8 -23 15 -36 15 -13 0
-24 5 -24 10 0 6 -16 10 -35 10 -19 0 -35 5 -35 10 0 6 -9 10 -19 10 -11 0
-23 5 -26 10 -3 6 -17 10 -30 10 -13 0 -27 5 -30 10 -3 6 -15 10 -26 10 -10 0
-19 4 -19 10 0 5 -12 13 -27 16 -16 4 -43 16 -61 26 -18 10 -39 18 -47 18 -8
0 -15 3 -15 8 0 4 -10 12 -23 17 -51 24 -132 71 -135 78 -2 4 -10 7 -19 7 -41
0 -43 17 -43 299 0 169 -4 272 -10 276 -6 4 -10 64 -10 146 0 81 -5 149 -11
160 -6 12 -15 71 -21 132 -5 62 -14 148 -19 192 -6 44 -12 126 -15 183 -3 56
-9 102 -14 102 -18 0 -37 707 -50 1885 -15 1344 -17 1211 20 1915 6 102 12
290 16 418 l5 232 100 0 c59 0 99 -4 99 -10z"/>
<path d="M8056 10269 c-29 -18 -56 -48 -56 -64 0 -8 -4 -15 -10 -15 -6 0 -10
-31 -10 -74 0 -41 5 -78 10 -81 6 -3 10 -15 10 -25 0 -27 48 -93 86 -119 48
-33 125 -29 191 11 32 20 53 39 53 50 0 10 3 18 8 18 16 0 32 57 32 115 0 50
-5 69 -28 106 -42 64 -94 89 -190 89 -43 0 -85 -5 -96 -11z"/>
<path d="M11280 14051 c0 -17 -4 -33 -10 -36 -17 -11 -11 -84 11 -126 18 -36
20 -53 15 -137 -11 -193 -28 -965 -27 -1297 0 -441 18 -1409 26 -1457 5 -28
12 -38 26 -38 10 0 19 5 19 10 0 6 4 10 10 10 13 0 52 41 69 73 8 15 22 36 33
46 10 11 18 24 18 28 0 4 14 23 30 42 17 18 30 37 30 42 0 4 7 14 14 22 8 8
24 30 35 49 10 20 25 46 33 59 7 13 19 28 26 32 6 4 12 16 12 27 0 10 3 20 8
22 7 3 24 36 77 153 15 33 31 68 36 77 5 10 9 29 9 43 0 14 5 25 10 25 6 0 10
18 10 39 0 22 5 43 10 46 6 3 10 21 10 39 0 17 4 36 9 42 5 5 16 47 25 94 9
47 21 89 26 94 6 6 10 27 10 47 0 21 5 41 10 44 6 3 10 24 10 45 0 21 5 42 10
45 6 3 10 24 10 45 0 21 5 42 10 45 6 3 10 26 10 51 0 24 4 44 9 44 5 0 11 22
15 50 4 27 11 52 16 55 6 3 10 25 10 49 0 23 4 46 9 51 28 30 28 491 0 520 -5
5 -9 25 -9 45 -1 19 -7 46 -15 60 -8 14 -14 35 -15 48 0 12 -4 22 -10 22 -5 0
-10 14 -10 30 0 17 -4 30 -10 30 -5 0 -10 11 -10 25 0 14 -4 25 -10 25 -5 0
-10 9 -10 20 0 11 -4 20 -10 20 -5 0 -10 9 -10 20 0 11 -4 20 -8 20 -5 0 -19
20 -31 45 -12 25 -28 51 -35 57 -6 7 -23 29 -36 48 -32 45 -135 148 -180 180
-19 13 -48 37 -65 52 -16 15 -33 28 -36 28 -4 0 -40 32 -80 70 -61 57 -80 70
-106 70 -30 0 -33 -3 -33 -29z m188 -229 c17 -9 32 -20 32 -24 0 -5 6 -8 14
-8 15 0 96 -75 96 -89 0 -4 13 -21 28 -37 16 -17 31 -36 35 -44 4 -8 18 -33
32 -55 14 -22 28 -48 31 -57 4 -10 10 -18 15 -18 5 0 9 -9 9 -20 0 -11 5 -20
10 -20 6 0 10 -11 10 -25 0 -14 5 -25 10 -25 6 0 10 -9 10 -20 0 -11 5 -20 10
-20 6 0 10 -11 10 -24 0 -13 7 -29 15 -36 8 -7 15 -21 15 -31 0 -25 20 -110
31 -131 5 -10 9 -47 9 -82 0 -36 5 -68 10 -71 6 -4 10 -57 10 -126 0 -73 -4
-119 -10 -119 -6 0 -10 -33 -10 -79 0 -44 -4 -82 -9 -85 -5 -3 -11 -32 -15
-63 -12 -117 -22 -173 -34 -185 -7 -7 -12 -34 -12 -60 0 -26 -4 -48 -10 -48
-5 0 -10 -20 -10 -44 0 -25 -4 -48 -10 -51 -5 -3 -10 -24 -10 -45 0 -21 -4
-41 -9 -44 -5 -3 -11 -23 -15 -43 -13 -92 -19 -113 -32 -124 -8 -6 -14 -27
-14 -45 0 -19 -4 -34 -10 -34 -5 0 -10 -16 -10 -35 0 -19 -4 -35 -10 -35 -5 0
-10 -13 -10 -30 0 -16 -4 -30 -10 -30 -5 0 -10 -11 -10 -24 0 -14 -4 -28 -10
-31 -5 -3 -10 -17 -10 -30 0 -13 -4 -26 -9 -30 -5 -3 -12 -19 -16 -35 -4 -17
-11 -30 -16 -30 -5 0 -9 -11 -9 -25 0 -14 -4 -25 -10 -25 -5 0 -10 -9 -10 -20
0 -11 -4 -20 -10 -20 -5 0 -10 -7 -10 -15 0 -9 -11 -27 -25 -41 -14 -14 -25
-28 -25 -32 0 -12 -44 -58 -62 -65 -14 -5 -17 4 -21 56 -3 34 -11 96 -17 137
-13 85 -18 2358 -6 2398 8 25 25 24 84 -6z"/>
<path d="M12520 13870 c0 -5 -7 -10 -17 -10 -17 0 -119 -100 -140 -138 -7 -12
-13 -35 -13 -52 0 -16 -4 -30 -8 -30 -8 0 -25 -447 -26 -680 -1 -101 23 -653
35 -815 5 -71 12 -173 15 -225 3 -52 10 -99 15 -104 5 -6 9 -38 9 -73 0 -35 4
-63 10 -63 6 0 10 -18 10 -39 0 -22 4 -42 9 -46 5 -3 17 -30 26 -60 8 -30 20
-55 25 -55 6 0 10 -9 10 -20 0 -11 5 -20 10 -20 6 0 10 -7 10 -15 0 -8 5 -15
10 -15 6 0 10 -7 10 -16 0 -9 9 -18 20 -21 11 -3 20 -9 20 -14 0 -5 9 -9 20
-9 10 0 31 -5 45 -12 19 -9 28 -9 37 0 7 7 25 12 40 12 28 0 78 38 78 60 0 5
4 10 8 10 5 0 17 19 27 43 9 23 21 50 26 59 5 10 9 29 9 42 0 14 5 28 10 31 6
3 10 22 10 41 0 19 5 34 10 34 6 0 10 19 10 43 0 24 4 47 9 53 5 5 11 27 15
49 3 22 10 72 15 112 5 39 14 81 20 92 6 11 11 51 11 90 0 38 5 73 10 76 6 4
10 163 10 445 0 282 -4 441 -10 445 -5 3 -10 35 -10 71 0 36 -5 75 -11 86 -11
20 -19 65 -35 191 -4 26 -11 50 -15 53 -5 3 -9 21 -9 40 0 19 -4 34 -10 34 -5
0 -10 9 -10 20 0 11 -4 28 -9 38 -5 9 -16 34 -25 54 -19 42 -148 178 -171 178
-8 0 -15 5 -15 10 0 6 -9 10 -20 10 -11 0 -20 5 -20 10 0 6 -20 10 -45 10 -25
0 -45 -4 -45 -10z m80 -113 c39 -19 100 -79 100 -99 0 -10 5 -18 10 -18 6 0
10 -9 10 -20 0 -11 5 -20 10 -20 6 0 10 -11 10 -24 0 -14 5 -28 10 -31 6 -3
10 -19 10 -35 0 -16 5 -32 10 -35 6 -3 10 -20 10 -36 0 -17 5 -40 12 -52 14
-25 27 -115 34 -232 3 -44 9 -89 15 -100 13 -26 5 -1012 -9 -1115 -12 -93 -28
-164 -42 -189 -5 -11 -10 -33 -10 -50 0 -17 -4 -31 -10 -31 -5 0 -10 -13 -10
-29 0 -17 -4 -33 -10 -36 -5 -3 -10 -19 -10 -36 0 -16 -4 -29 -10 -29 -5 0
-10 -13 -10 -30 0 -16 -4 -30 -10 -30 -5 0 -10 -6 -10 -13 0 -7 -7 -23 -16
-36 l-17 -23 -38 41 c-23 24 -39 51 -39 65 0 13 -7 26 -15 30 -9 3 -15 18 -15
36 0 16 -4 30 -10 30 -5 0 -10 15 -10 34 0 19 -4 38 -10 41 -5 3 -10 21 -10
40 0 19 -4 37 -10 40 -5 3 -10 33 -10 66 0 33 -4 59 -10 59 -6 0 -10 35 -10
86 0 47 -5 95 -12 107 -6 12 -15 92 -20 177 -5 85 -13 227 -19 315 -20 289
-10 878 16 1057 4 26 14 53 21 59 8 6 14 20 14 30 0 50 56 66 120 36z"/>
<path d="M14072 13762 c-22 -19 -30 -56 -14 -66 16 -9 24 -280 32 -1011 8
-746 24 -1247 40 -1277 6 -10 10 -27 10 -38 0 -17 7 -20 39 -20 69 0 67 -24
61 534 -7 743 -6 858 14 897 9 17 16 47 16 66 0 18 5 33 10 33 6 0 10 13 10
29 0 17 5 33 10 36 6 3 10 17 10 30 0 13 5 27 10 30 6 3 10 15 10 26 0 10 4
19 9 19 5 0 12 13 16 30 4 16 11 32 16 35 5 4 9 15 9 26 0 10 5 19 10 19 6 0
10 9 10 20 0 11 5 20 10 20 6 0 10 8 10 19 0 23 85 111 125 130 17 7 38 17 47
22 10 5 43 9 73 9 58 0 91 19 108 63 6 15 -1 17 -54 17 -62 0 -141 -14 -171
-31 -10 -5 -27 -9 -38 -9 -11 0 -20 -4 -20 -10 0 -5 -5 -10 -10 -10 -18 0 -79
-44 -91 -66 -6 -12 -22 -27 -34 -34 -13 -7 -26 -20 -29 -29 -5 -16 -37 -72
-46 -81 -3 -3 -17 -31 -32 -62 -29 -60 -48 -74 -48 -35 0 13 -4 27 -9 33 -5 5
-12 90 -15 189 -8 213 -20 377 -33 425 -10 42 -38 50 -71 22z"/>
<path d="M13375 13678 c-43 -23 -69 -48 -91 -89 -22 -44 -44 -112 -44 -141 0
-16 -4 -28 -10 -28 -5 0 -10 -25 -10 -55 0 -30 -4 -55 -9 -55 -5 0 -12 -33
-15 -72 -4 -40 -10 -125 -15 -188 -28 -342 -21 -1354 9 -1384 6 -6 10 -25 10
-42 0 -18 5 -36 10 -39 6 -3 10 -19 10 -36 0 -16 5 -29 10 -29 6 0 10 -9 10
-20 0 -11 5 -20 10 -20 6 0 10 -9 10 -19 0 -10 7 -21 15 -25 8 -3 15 -12 15
-19 0 -8 14 -28 30 -45 17 -18 30 -36 30 -40 0 -5 13 -23 29 -41 31 -35 49
-37 136 -15 30 7 34 9 83 53 31 28 82 122 82 152 0 10 5 21 10 24 6 3 10 21
10 40 0 19 5 37 10 40 6 3 10 21 10 40 0 19 5 37 10 40 6 3 10 26 10 51 0 24
5 44 10 44 6 0 10 18 10 40 0 22 7 57 15 77 8 19 15 56 15 82 0 26 4 51 9 57
9 9 16 61 27 194 2 36 9 74 15 85 13 27 5 639 -10 730 -7 39 -14 91 -17 118
-3 26 -10 47 -15 47 -5 0 -9 18 -9 40 0 22 -4 40 -10 40 -5 0 -12 16 -16 35
-3 19 -10 35 -15 35 -5 0 -9 14 -9 30 0 17 -4 30 -10 30 -5 0 -10 11 -10 25 0
14 -4 25 -10 25 -5 0 -10 6 -10 14 0 8 -17 45 -37 82 -39 72 -93 134 -117 134
-8 0 -18 5 -21 10 -11 18 -108 10 -150 -12z m76 -69 c36 -19 99 -88 99 -109 0
-11 5 -29 10 -40 6 -11 15 -29 20 -40 6 -11 10 -29 10 -39 0 -11 5 -23 10 -26
6 -3 10 -19 10 -36 0 -16 4 -29 10 -29 5 0 13 -18 16 -40 4 -22 11 -43 15 -46
5 -3 9 -18 9 -34 0 -16 5 -32 10 -35 6 -3 10 -26 10 -50 0 -24 5 -47 10 -50 6
-3 10 -29 10 -56 0 -28 5 -59 11 -70 15 -28 14 -648 0 -662 -6 -6 -11 -44 -11
-84 0 -40 -4 -73 -9 -73 -5 0 -12 -30 -14 -67 -3 -38 -10 -95 -16 -128 -6 -33
-13 -85 -17 -115 -4 -30 -13 -67 -20 -82 -8 -15 -14 -50 -14 -78 0 -27 -4 -50
-10 -50 -5 0 -10 -16 -10 -35 0 -34 -3 -42 -28 -92 -7 -13 -12 -30 -12 -38 0
-8 -4 -15 -10 -15 -5 0 -10 -9 -10 -20 0 -10 -9 -24 -21 -30 -17 -10 -25 -6
-55 27 -20 21 -43 50 -52 66 -9 15 -20 27 -24 27 -4 0 -8 9 -8 20 0 11 -4 20
-10 20 -5 0 -10 11 -10 25 0 14 -4 25 -10 25 -5 0 -10 14 -10 30 0 17 -4 30
-10 30 -5 0 -10 17 -10 38 0 20 -7 55 -15 77 -11 32 -14 117 -14 445 0 223 5
461 10 530 6 69 12 224 15 345 3 121 10 224 15 230 5 5 9 33 9 61 0 29 5 56
10 59 6 3 10 26 10 51 0 24 5 44 10 44 6 0 10 14 10 30 0 17 4 30 8 30 5 0 17
16 28 35 21 40 19 39 45 24z"/>
<path d="M15190 13560 c0 -5 -8 -10 -17 -10 -32 0 -123 -100 -123 -134 0 -9
-4 -16 -10 -16 -5 0 -10 -11 -10 -24 0 -14 -4 -28 -10 -31 -6 -4 -10 -57 -10
-125 0 -68 4 -121 10 -125 6 -3 10 -19 10 -36 0 -16 5 -29 10 -29 6 0 10 -13
10 -30 0 -16 4 -30 9 -30 5 0 12 -13 16 -30 4 -16 11 -32 16 -35 5 -4 9 -17 9
-30 0 -13 5 -27 10 -30 6 -3 10 -17 10 -31 0 -13 5 -24 10 -24 6 0 10 -11 10
-25 0 -14 5 -25 10 -25 6 0 10 -8 10 -17 0 -10 11 -40 25 -68 13 -27 25 -58
25 -67 0 -10 5 -18 10 -18 6 0 10 -9 10 -19 0 -11 5 -23 10 -26 6 -3 10 -19
10 -36 0 -16 5 -29 10 -29 6 0 10 -13 10 -29 0 -17 5 -33 10 -36 6 -3 10 -19
10 -34 0 -16 7 -42 15 -57 8 -16 15 -46 15 -66 0 -21 4 -38 9 -38 17 0 38
-347 22 -363 -6 -6 -11 -30 -11 -54 0 -24 -4 -43 -10 -43 -5 0 -10 -7 -10 -16
0 -26 -50 -107 -87 -141 -33 -31 -93 -47 -93 -25 0 4 -20 14 -45 21 -25 7 -45
17 -45 22 0 5 -9 9 -20 9 -11 0 -20 5 -20 10 0 6 -13 10 -30 10 -16 0 -30 -4
-30 -10 0 -5 -5 -10 -11 -10 -16 0 -39 -26 -39 -45 0 -20 59 -85 77 -85 7 0
13 -4 13 -8 0 -4 20 -14 44 -21 36 -10 52 -10 83 0 50 16 127 52 131 62 2 4 9
7 15 7 15 0 104 85 138 130 35 48 69 117 69 140 0 10 5 22 10 25 13 8 13 287
1 300 -5 6 -11 39 -14 75 -2 36 -9 79 -15 95 -6 17 -17 58 -24 93 -7 34 -16
62 -20 62 -4 0 -8 13 -8 29 0 17 -4 33 -10 36 -5 3 -10 19 -10 36 0 16 -4 29
-10 29 -5 0 -10 9 -10 19 0 11 -4 23 -10 26 -5 3 -10 14 -10 23 0 14 -26 76
-61 144 -5 10 -9 25 -9 33 0 8 -4 15 -10 15 -5 0 -10 11 -10 24 0 14 -4 28
-10 31 -5 3 -10 14 -10 24 0 10 -6 23 -13 29 -7 6 -19 34 -27 62 -7 27 -17 50
-22 50 -4 0 -8 13 -8 29 0 17 -4 33 -10 36 -6 4 -10 57 -10 126 0 73 4 119 10
119 6 0 10 14 10 30 0 17 4 30 9 30 5 0 14 14 21 30 17 41 100 83 100 50 0 -5
9 -10 20 -10 11 0 45 -16 75 -36 54 -34 94 -41 102 -18 5 15 -91 114 -111 114
-8 0 -18 5 -21 10 -3 6 -42 10 -86 10 -46 0 -79 -4 -79 -10z"/>
<path d="M10645 10940 c-3 -5 -21 -10 -40 -10 -19 0 -37 -4 -40 -10 -3 -5 -16
-10 -28 -11 -26 -1 -119 -50 -124 -65 -3 -10 99 -124 112 -124 3 0 21 -11 39
-25 18 -14 38 -25 44 -25 7 0 12 -4 12 -10 0 -5 9 -10 20 -10 11 0 20 -4 20
-10 0 -5 8 -10 18 -10 10 0 23 -5 30 -12 6 -6 15 -8 19 -3 5 4 2 10 -4 12 -7
3 -13 13 -13 24 0 10 -4 19 -10 19 -5 0 -10 5 -10 11 0 6 -9 22 -20 37 -12 15
-17 29 -12 34 11 11 180 4 322 -12 52 -5 201 -14 330 -20 129 -5 269 -14 310
-20 68 -11 1731 -24 2045 -17 55 1 350 2 655 1 511 -1 715 -7 1075 -35 72 -5
209 -12 306 -15 150 -4 178 -3 189 10 10 13 9 17 -6 22 -11 3 -28 10 -39 15
-11 4 -63 11 -115 13 -275 14 -420 25 -432 33 -22 14 -353 25 -693 24 -1670
-6 -1793 -8 -1878 -20 -48 -7 -95 -10 -105 -6 -9 4 -282 11 -607 17 -324 5
-657 14 -740 19 -82 5 -193 11 -245 14 -52 3 -104 10 -115 15 -11 5 -54 11
-95 14 -79 4 -166 19 -176 29 -15 14 7 37 36 37 16 0 30 5 30 10 0 6 20 10 45
10 25 0 45 5 45 10 0 6 17 10 38 10 45 0 56 8 41 27 -14 16 -224 19 -234 3z"/>
<path d="M12280 10460 c0 -5 -9 -10 -20 -10 -11 0 -20 -3 -20 -7 0 -5 -21 -21
-45 -38 -25 -16 -45 -36 -45 -42 0 -7 -4 -13 -10 -13 -5 0 -10 -7 -10 -15 0
-8 -3 -15 -8 -15 -4 0 -16 -20 -27 -45 -11 -25 -23 -45 -26 -45 -17 0 -36
-200 -50 -515 -5 -121 -14 -317 -19 -435 -18 -399 -23 -711 -11 -723 6 -6 11
-33 11 -59 0 -26 5 -48 10 -48 6 0 10 -16 10 -35 0 -19 5 -35 10 -35 6 0 10
-13 10 -29 0 -17 5 -33 10 -36 6 -3 10 -14 11 -23 0 -23 109 -112 136 -112 12
0 25 -4 28 -10 9 -15 88 -12 121 5 50 25 134 116 134 144 0 6 4 11 8 11 5 0
14 19 21 43 7 23 17 53 22 66 10 23 -7 81 -23 81 -16 0 -68 -64 -68 -84 0 -12
-7 -30 -15 -40 -8 -11 -15 -30 -15 -43 0 -13 -4 -23 -10 -23 -5 0 -10 -7 -10
-15 0 -9 -12 -28 -26 -42 -22 -22 -29 -24 -45 -15 -10 7 -26 12 -34 12 -18 0
-115 92 -115 109 0 6 -4 11 -10 11 -5 0 -10 7 -10 15 0 8 -4 24 -10 35 -5 11
-14 29 -20 40 -5 11 -10 32 -10 48 0 15 -6 34 -12 40 -18 18 -23 458 -7 627
11 122 22 360 35 778 3 97 10 177 15 177 5 0 9 16 9 35 0 19 4 43 9 53 5 9 19
41 31 69 28 65 69 103 110 103 16 0 30 -4 30 -10 0 -5 10 -10 23 -10 12 0 36
-12 53 -28 30 -27 74 -94 74 -113 0 -21 31 -40 57 -37 26 3 28 6 26 43 -2 22
-7 41 -13 43 -5 2 -10 15 -10 28 0 13 -4 24 -10 24 -5 0 -10 6 -10 13 0 16
-37 57 -77 85 -24 17 -45 22 -97 22 -37 0 -66 -4 -66 -10z"/>
<path d="M14224 10366 c-88 -41 -154 -116 -154 -177 0 -15 -4 -31 -10 -34 -5
-3 -10 -44 -10 -90 0 -46 5 -87 10 -90 16 -10 13 -305 -2 -305 -7 0 -36 -12
-65 -27 -42 -21 -53 -31 -53 -51 0 -28 53 -82 81 -82 37 0 67 -22 72 -54 3
-17 10 -51 16 -76 5 -25 10 -74 11 -110 0 -37 4 -70 9 -75 5 -6 12 -62 15
-125 3 -63 11 -169 17 -235 10 -112 16 -362 11 -430 -1 -16 1 -57 5 -90 6 -45
12 -61 26 -63 9 -2 17 1 17 7 0 6 9 11 21 11 12 0 23 8 26 20 3 11 10 20 15
20 20 0 -8 866 -30 945 -12 42 -16 242 -6 269 4 12 20 16 54 16 27 0 52 5 55
10 3 6 24 10 46 10 37 0 39 2 39 29 0 17 -4 33 -10 36 -5 3 -10 24 -10 47 0
37 -2 40 -22 33 -13 -5 -57 -10 -99 -12 l-76 -4 -7 28 c-23 94 -29 125 -33
186 -2 37 -9 67 -14 67 -5 0 -9 54 -9 120 0 66 3 120 8 120 4 0 13 13 20 30 7
16 27 36 44 45 35 17 78 20 78 5 0 -5 7 -10 16 -10 30 0 74 -71 74 -121 0 -15
5 -31 10 -34 6 -3 10 -19 10 -36 0 -16 5 -29 10 -29 6 0 10 10 10 23 0 13 4
27 10 33 5 5 13 37 16 70 5 47 3 69 -11 97 -9 21 -21 37 -26 37 -5 0 -9 7 -9
15 0 8 -8 24 -17 35 -25 29 -111 26 -179 -4z"/>
<path d="M15160 10346 c-19 -5 -42 -18 -51 -28 -9 -10 -19 -18 -23 -18 -11 0
-56 -48 -56 -60 0 -5 -3 -10 -7 -10 -5 0 -13 -10 -19 -23 -6 -12 -27 -52 -47
-90 -21 -37 -37 -76 -37 -87 0 -10 -4 -22 -10 -25 -5 -3 -10 -21 -10 -39 0
-17 -4 -36 -9 -42 -29 -29 -29 -627 -1 -689 5 -11 11 -51 14 -90 6 -86 21
-195 34 -255 6 -25 16 -74 22 -110 6 -36 16 -69 21 -74 5 -6 9 -20 9 -32 0
-13 5 -26 10 -29 6 -3 10 -15 10 -26 0 -10 3 -19 8 -19 4 0 14 -15 21 -32 8
-18 20 -38 25 -44 6 -6 18 -21 26 -33 8 -11 22 -21 32 -21 10 0 18 -4 18 -10
0 -5 18 -10 39 -10 22 0 43 5 46 10 3 6 19 10 36 10 16 0 29 5 29 10 0 6 7 10
15 10 8 0 15 3 15 8 0 4 14 13 30 20 17 8 30 18 30 24 0 6 8 18 18 27 22 19
72 108 72 127 0 8 4 14 9 14 19 0 31 185 17 245 -15 59 -13 58 -56 34 -24 -14
-40 -30 -40 -41 0 -10 -4 -18 -9 -18 -5 0 -12 -28 -15 -62 -15 -162 -18 -188
-27 -188 -5 0 -9 -10 -9 -23 0 -12 -14 -40 -32 -61 -29 -36 -34 -38 -71 -32
-42 7 -97 53 -97 81 0 8 -4 15 -9 15 -8 0 -14 28 -27 130 -4 25 -10 50 -16 57
-9 11 -26 86 -34 158 -3 22 -9 49 -14 60 -5 11 -12 43 -15 70 -3 28 -10 82
-16 120 -19 132 -21 185 -9 255 l12 70 109 0 c66 0 109 4 109 10 0 6 14 10 30
10 17 0 30 4 30 8 0 4 12 15 28 24 67 41 90 73 127 177 43 119 32 252 -32 386
-9 19 -20 35 -25 35 -4 0 -8 4 -8 10 0 5 -11 21 -25 35 -14 14 -30 25 -35 25
-6 0 -10 3 -10 8 0 9 -47 32 -85 41 -16 4 -46 3 -65 -3z m40 -96 c0 -5 7 -10
15 -10 8 0 30 -16 49 -35 20 -19 39 -35 44 -35 13 0 52 -79 52 -106 0 -13 5
-24 10 -24 6 0 10 -38 10 -94 0 -53 -4 -98 -10 -101 -5 -3 -10 -19 -10 -36 0
-16 -4 -29 -10 -29 -5 0 -10 -6 -10 -12 -1 -20 -36 -58 -54 -58 -9 0 -16 -4
-16 -10 0 -6 -28 -10 -65 -10 -37 0 -65 4 -65 10 0 6 -17 10 -39 10 -28 0 -45
7 -65 26 -24 25 -26 33 -26 120 0 56 4 94 10 94 6 0 10 16 10 35 0 19 4 43 9
53 5 9 19 37 30 62 25 55 50 98 74 124 9 11 17 23 17 28 0 4 9 8 20 8 11 0 20
-4 20 -10z"/>
<path d="M13220 10290 c0 -5 -7 -10 -15 -10 -19 0 -64 -45 -84 -83 -8 -15 -18
-27 -23 -27 -4 0 -8 -7 -8 -15 0 -14 -45 -101 -61 -119 -5 -6 -9 -23 -9 -38 0
-15 -4 -28 -9 -28 -5 0 -12 -42 -16 -92 -24 -323 -43 -1368 -25 -1368 5 0 10
-18 10 -39 0 -22 5 -43 10 -46 6 -3 10 -15 10 -26 0 -10 5 -19 10 -19 6 0 10
-9 10 -20 0 -11 4 -20 9 -20 5 0 13 -10 16 -21 7 -21 88 -109 101 -109 3 0 22
-7 41 -17 33 -15 37 -15 63 0 15 10 35 17 44 17 9 0 16 5 16 10 0 6 8 10 18
10 10 0 24 9 32 20 8 11 20 20 27 20 7 0 13 3 13 8 0 4 14 21 30 39 17 18 30
39 30 47 0 8 5 18 10 21 6 3 10 19 10 36 0 16 5 29 10 29 6 0 10 14 10 30 0
17 4 38 9 48 5 9 12 25 15 35 9 27 37 4 62 -51 45 -99 74 -170 74 -181 0 -6 5
-11 10 -11 6 0 10 -7 10 -15 0 -8 5 -15 10 -15 6 0 10 -5 10 -12 0 -6 7 -19
16 -29 15 -17 18 -16 55 21 44 43 47 60 20 98 -35 51 -71 123 -71 142 0 11 -4
20 -10 20 -5 0 -10 11 -10 24 0 14 -4 28 -10 31 -5 3 -10 21 -10 40 0 18 -5
35 -11 37 -6 2 -17 62 -25 133 -12 101 -13 158 -5 255 6 69 13 183 16 254 3
71 10 149 17 173 8 32 8 50 0 66 -6 12 -18 38 -26 57 -9 19 -19 42 -24 50 -24
41 -32 61 -32 79 0 11 -4 23 -10 26 -5 3 -10 16 -10 27 0 20 -13 69 -31 113
-20 52 -42 102 -50 117 -5 10 -9 25 -9 33 0 8 -4 15 -10 15 -5 0 -10 11 -10
25 0 14 -4 25 -10 25 -5 0 -10 9 -10 19 0 11 -3 21 -8 23 -4 2 -22 26 -40 55
-18 28 -49 61 -68 72 -36 22 -104 29 -104 11z m45 -90 c3 -5 13 -10 21 -10 20
0 44 -24 44 -44 0 -9 5 -16 10 -16 6 0 10 -11 10 -25 0 -14 5 -25 10 -25 6 0
10 -9 10 -19 0 -11 3 -21 8 -23 12 -5 62 -141 62 -171 0 -15 5 -27 10 -27 6 0
10 -18 10 -40 0 -22 5 -40 10 -40 6 0 10 -22 10 -49 0 -28 5 -53 10 -56 6 -3
10 -39 10 -79 0 -42 5 -77 12 -84 17 -17 23 -262 8 -347 -7 -38 -17 -110 -21
-160 -15 -159 -21 -200 -30 -210 -5 -5 -9 -26 -9 -46 0 -21 -4 -41 -10 -44 -5
-3 -10 -21 -10 -40 0 -19 -4 -36 -9 -39 -5 -3 -11 -20 -14 -38 -12 -72 -25
-120 -36 -131 -6 -6 -11 -26 -11 -44 0 -18 -4 -33 -10 -33 -5 0 -10 -9 -10
-20 0 -11 -4 -20 -10 -20 -5 0 -10 -5 -10 -11 0 -6 -7 -17 -16 -26 -14 -14
-19 -13 -57 6 -51 27 -127 96 -127 116 0 8 -4 15 -10 15 -5 0 -10 13 -10 29 0
17 -4 33 -10 36 -5 3 -10 24 -10 45 0 21 -4 41 -9 44 -7 5 -24 232 -22 316 1
73 22 613 31 790 13 261 20 340 31 340 5 0 9 14 9 30 0 17 4 30 8 30 4 0 17
19 29 43 38 76 79 108 98 77z"/>
<path d="M16104 8061 c4 -6 14 -11 22 -11 8 0 14 -4 14 -10 0 -5 6 -10 13 -10
12 0 98 -40 107 -51 3 -3 26 -16 53 -28 26 -13 47 -29 47 -37 0 -13 -33 -14
-227 -10 -126 3 -291 10 -368 16 -77 6 -189 13 -250 15 -60 3 -119 9 -130 14
-11 5 -81 12 -155 15 -74 3 -151 10 -170 16 -49 14 -2302 14 -2368 -1 -56 -12
-265 -24 -645 -39 -320 -12 -654 6 -714 38 -12 7 -53 12 -92 12 -69 0 -71 -1
-71 -25 0 -22 4 -25 38 -25 21 0 42 -4 47 -9 10 -9 60 -15 213 -27 39 -3 72
-9 72 -14 0 -23 475 -29 790 -10 179 11 590 13 2010 10 250 0 538 0 640 0 182
1 377 -8 595 -28 289 -27 350 -34 359 -40 11 -7 115 -19 249 -28 67 -5 77 -8
77 -25 0 -10 -7 -19 -15 -19 -8 0 -15 -3 -15 -8 0 -4 -17 -16 -37 -27 -69 -36
-113 -67 -113 -81 0 -8 -4 -14 -10 -14 -5 0 -10 -7 -10 -15 0 -9 10 -15 26
-15 14 0 32 7 40 15 9 8 26 15 40 15 13 0 24 5 24 10 0 6 14 10 30 10 17 0 30
5 30 10 0 6 8 10 18 10 20 0 89 23 98 33 4 4 17 7 28 7 12 0 30 7 40 15 11 8
28 15 38 15 10 0 18 5 18 10 0 6 11 10 25 10 14 0 25 5 25 10 0 6 9 10 20 10
24 0 27 37 8 72 -38 66 -189 188 -233 188 -8 0 -15 4 -15 9 0 9 -39 15 -164
27 -41 4 -56 3 -52 -5z"/>
</g>
</svg>
